<svg width="99" height="82" viewBox="0 0 99 82" fill="none" xmlns="http://www.w3.org/2000/svg">
<path d="M74.9962 2.72228L5.41303 26.2579C2.96068 27.0873 1.63969 29.7319 2.46252 32.1645L17.6243 76.9906C18.4471 79.4233 21.1022 80.7229 23.5546 79.8934L93.1377 56.3579C95.5901 55.5284 96.9111 52.8839 96.0883 50.4512L80.9265 5.62516C80.1036 3.19247 77.4486 1.8928 74.9962 2.72228Z" fill="#0E133A"/>
<path d="M76.1701 2.32506L6.58686 25.8607C4.13451 26.6901 2.81352 29.3346 3.63634 31.7673L18.7981 76.5933C19.621 79.026 22.276 80.3257 24.7284 79.4962L94.3116 55.9606C96.7639 55.1312 98.0849 52.4867 97.2621 50.054L82.1003 5.22795C81.2775 2.79525 78.6224 1.49559 76.1701 2.32506Z" fill="url(#paint0_linear_368_2523)" fill-opacity="0.96"/>
<mask id="mask0_368_2523" style="mask-type:luminance" maskUnits="userSpaceOnUse" x="3" y="2" width="95" height="78">
<path d="M76.1701 2.32506L6.58686 25.8607C4.13451 26.6901 2.81352 29.3346 3.63634 31.7673L18.7981 76.5933C19.621 79.026 22.276 80.3257 24.7284 79.4962L94.3116 55.9606C96.7639 55.1312 98.0849 52.4867 97.2621 50.054L82.1003 5.22795C81.2775 2.79525 78.6224 1.49559 76.1701 2.32506Z" fill="white"/>
</mask>
<g mask="url(#mask0_368_2523)">
<path d="M26.5833 44.2705L24.0149 36.6771C23.497 35.1459 21.8258 34.3278 20.2822 34.8499L13.3503 37.1945C11.8066 37.7166 10.9751 39.3812 11.4931 40.9125L14.0614 48.5058C14.5793 50.0371 16.2506 50.8551 17.7942 50.333L24.7261 47.9884C26.2697 47.4663 27.1012 45.8017 26.5833 44.2705Z" fill="#0E133A"/>
<path d="M20.4392 35.3533L13.5344 37.6887C12.3995 38.0726 11.7882 39.2964 12.169 40.4222L14.7274 47.9862C15.1082 49.112 16.3369 49.7135 17.4718 49.3296L24.3766 46.9942C25.5114 46.6103 26.1228 45.3865 25.742 44.2607L23.1836 36.6967C22.8028 35.5709 21.5741 34.9694 20.4392 35.3533Z" fill="#FFB641"/>
<path style="mix-blend-mode:overlay" d="M20.4392 35.3533L13.5344 37.6887C12.3995 38.0726 11.7882 39.2964 12.169 40.4222L14.7274 47.9862C15.1082 49.112 16.3369 49.7135 17.4718 49.3296L24.3766 46.9942C25.5114 46.6103 26.1228 45.3865 25.742 44.2607L23.1836 36.6967C22.8028 35.5709 21.5741 34.9694 20.4392 35.3533Z" fill="url(#paint1_linear_368_2523)"/>
<path d="M19.9331 37.8233L15.4335 39.3452C14.7319 39.5825 14.3539 40.3391 14.5894 41.0352L16.2787 46.0297C16.5141 46.7257 17.2737 47.0976 17.9754 46.8602L22.475 45.3383C23.1766 45.101 23.5546 44.3444 23.3192 43.6484L21.6298 38.6538C21.3944 37.9578 20.6348 37.5859 19.9331 37.8233Z" stroke="#F1EEEE" stroke-width="0.98" stroke-miterlimit="10"/>
<path d="M19.0737 40.6064L17.8082 41.0345C17.3327 41.1953 17.0766 41.7081 17.2361 42.1797L17.6881 43.5158C17.8476 43.9875 18.3624 44.2395 18.8379 44.0787L20.1034 43.6506C20.5789 43.4898 20.835 42.9771 20.6754 42.5054L20.2235 41.1693C20.064 40.6976 19.5492 40.4456 19.0737 40.6064Z" stroke="#F1EEEE" stroke-width="0.98" stroke-miterlimit="10"/>
<path d="M20.1839 41.0765C20.799 40.9039 21.4026 40.6888 22.0037 40.4746C22.0629 40.4546 22.1221 40.4346 22.1829 40.4113C22.2594 40.3854 22.2205 40.2622 22.1424 40.2913C21.6523 40.468 21.1597 40.6373 20.6639 40.7969C20.4904 40.8528 20.3185 40.9055 20.1433 40.9566C20.0652 40.9775 20.1058 41.0975 20.1839 41.0765Z" fill="#F1EEEE"/>
<path d="M20.7138 42.6425C21.3717 42.4582 22.0164 42.2183 22.6536 41.981C22.7301 41.9551 22.6912 41.8319 22.6131 41.8611C21.9734 42.0993 21.3287 42.3391 20.6733 42.5226C20.5952 42.5436 20.6357 42.6635 20.7138 42.6425Z" fill="#F1EEEE"/>
<path d="M15.2181 42.7562C15.8332 42.5836 16.4368 42.3685 17.0378 42.1543C17.097 42.1343 17.1562 42.1142 17.2171 42.0909C17.2936 42.0651 17.2546 41.9419 17.1765 41.971C16.6865 42.1477 16.1939 42.317 15.6981 42.4766C15.5246 42.5325 15.3527 42.5852 15.1775 42.6363C15.0994 42.6572 15.14 42.7771 15.2181 42.7562Z" fill="#F1EEEE"/>
<path d="M15.748 44.3222C16.4059 44.1379 17.0506 43.898 17.6878 43.6607C17.7643 43.6348 17.7253 43.5116 17.6472 43.5408C17.0075 43.779 16.3629 44.0188 15.7075 44.2023C15.6293 44.2233 15.6699 44.3432 15.748 44.3222Z" fill="#F1EEEE"/>
<path d="M81.461 -15.1054L61.3447 -24.9524L9.80421 78.2272L29.9205 88.0742L81.461 -15.1054Z" fill="url(#paint2_linear_368_2523)"/>
<path d="M92.1586 -12.2536L87.0078 -14.7749L39.6098 80.1117L44.7606 82.6331L92.1586 -12.2536Z" fill="url(#paint3_linear_368_2523)"/>
<path d="M18.9311 17.3307L16.916 16.3442L0.843145 48.5207L2.85826 49.5071L18.9311 17.3307Z" fill="url(#paint4_linear_368_2523)"/>
</g>
<defs>
<linearGradient id="paint0_linear_368_2523" x1="86.4721" y1="-4.44963" x2="21.271" y2="63.8599" gradientUnits="userSpaceOnUse">
<stop stop-color="#78B3F8"/>
<stop offset="1" stop-color="#467EE6"/>
</linearGradient>
<linearGradient id="paint1_linear_368_2523" x1="4.38186" y1="32.6878" x2="22.3859" y2="44.8195" gradientUnits="userSpaceOnUse">
<stop stop-color="white"/>
<stop offset="1" stop-color="white" stop-opacity="0"/>
</linearGradient>
<linearGradient id="paint2_linear_368_2523" x1="28.3497" y1="-13.7025" x2="49.7658" y2="58.804" gradientUnits="userSpaceOnUse">
<stop stop-color="white"/>
<stop offset="1" stop-color="white" stop-opacity="0"/>
</linearGradient>
<linearGradient id="paint3_linear_368_2523" x1="72.2626" y1="-16.1742" x2="99.2438" y2="32.6488" gradientUnits="userSpaceOnUse">
<stop stop-color="white"/>
<stop offset="1" stop-color="white" stop-opacity="0"/>
</linearGradient>
<linearGradient id="paint4_linear_368_2523" x1="4.8587" y1="4.55345" x2="19.8679" y2="36.6872" gradientUnits="userSpaceOnUse">
<stop stop-color="white"/>
<stop offset="1" stop-color="white" stop-opacity="0"/>
</linearGradient>
</defs>
</svg>
