<svg width="198" height="50" viewBox="0 0 198 50" fill="none" xmlns="http://www.w3.org/2000/svg">
<path d="M57.9238 45.661C57.9238 44.7061 58.2512 43.8876 58.906 43.2873C59.5608 42.6598 60.3794 42.3596 61.3343 42.3596C62.2893 42.3596 63.1077 42.6598 63.7626 43.2873C64.4174 43.9149 64.7448 44.7061 64.7448 45.661C64.7448 46.616 64.4174 47.4345 63.7626 48.062C63.1077 48.6896 62.2893 49.0169 61.3343 49.0169C60.3794 49.0169 59.5608 48.6896 58.906 48.062C58.2512 47.4345 57.9238 46.6433 57.9238 45.661ZM59.9974 44.2422C59.67 44.6515 59.5336 45.1154 59.5336 45.661C59.5336 46.2067 59.6973 46.6706 59.9974 47.0799C60.2976 47.4891 60.7614 47.7073 61.3343 47.7073C61.9073 47.7073 62.3711 47.4891 62.6712 47.0799C62.9986 46.6706 63.1351 46.2067 63.1351 45.661C63.1351 45.1154 62.9713 44.6515 62.6712 44.2422C62.3438 43.833 61.9073 43.6421 61.3343 43.6421C60.7614 43.6421 60.2976 43.833 59.9974 44.2422Z" fill="#5088E9"/>
<path d="M73.6123 48.8253V42.55H75.1947V44.9237H77.8413V42.55H79.4238V48.8253H77.8413V46.1789H75.1947V48.8253H73.6123Z" fill="#5088E9"/>
<path d="M90.6644 48.9079C90.2552 48.9079 89.9277 48.8805 89.7095 48.7986L89.8186 47.5164C89.8186 47.5164 90.0915 47.571 90.2279 47.571C90.6371 47.571 90.9372 47.3526 91.1555 46.9433C91.3738 46.5341 91.4829 45.7975 91.4829 44.7607V42.5234H96.6396V48.7986H95.0571V43.7785H92.9836V45.1154C92.9836 46.3977 92.7925 47.3526 92.4106 47.9802C92.0286 48.5804 91.4556 48.9079 90.6371 48.9079H90.6644Z" fill="#5088E9"/>
<path d="M134.292 48.8253V42.55H135.874V44.9237H138.521V42.55H140.103V48.8253H138.521V46.1789H135.874V48.8253H134.292Z" fill="#5088E9"/>
<path d="M118.822 48.8257V42.5504H120.404V46.6157L123.16 42.5504H124.852V48.8257H123.269V44.7877L120.541 48.8257H118.822ZM121.823 41.4318C121.25 41.4318 120.759 41.2681 120.432 40.9407C120.077 40.6133 119.859 40.1494 119.777 39.5765L120.623 39.4946C120.677 39.7948 120.786 40.013 121.004 40.1767C121.223 40.3404 121.496 40.4223 121.823 40.4223C122.15 40.4223 122.423 40.3404 122.642 40.1767C122.86 40.013 122.996 39.7948 123.023 39.4946L123.869 39.6583C123.787 40.204 123.596 40.6406 123.242 40.968C122.887 41.2681 122.423 41.4318 121.823 41.4318Z" fill="#5088E9"/>
<path d="M108.098 48.8257V48.0345H108.071C107.907 48.3074 107.662 48.5529 107.307 48.7166C106.953 48.9076 106.57 48.9894 106.134 48.9894C105.534 48.9894 104.988 48.8257 104.497 48.4983C104.006 48.1709 103.76 47.6798 103.76 47.025C103.76 46.6703 103.842 46.3429 104.033 46.0973C104.224 45.8245 104.442 45.6335 104.715 45.4698C104.988 45.3334 105.315 45.197 105.725 45.1151C106.134 45.0333 106.516 44.9514 106.871 44.9514C107.225 44.9514 107.635 44.9241 108.071 44.9241V44.7604C108.071 44.4057 107.935 44.1056 107.662 43.9146C107.389 43.7236 107.034 43.6145 106.625 43.6145C105.97 43.6145 105.397 43.8601 104.906 44.3239L104.088 43.369C104.797 42.7142 105.697 42.3867 106.734 42.3867C107.28 42.3867 107.744 42.4686 108.126 42.605C108.508 42.7687 108.808 42.9597 108.999 43.2325C109.19 43.5054 109.354 43.7782 109.435 44.0783C109.517 44.3784 109.572 44.6787 109.572 45.0334V48.853H108.098V48.8257ZM108.098 46.1792V45.9609H107.744C106.134 45.9609 105.343 46.3156 105.343 46.9977C105.343 47.2706 105.452 47.4889 105.67 47.5981C105.888 47.7072 106.134 47.7889 106.461 47.7889C107.007 47.7889 107.389 47.6526 107.689 47.3524C107.962 47.0796 108.126 46.6703 108.126 46.1792H108.098Z" fill="#5088E9"/>
<path d="M18.335 32.4553V17.0398H21.0907V23.6971H21.1452L27.5843 17.0398H31.2949L24.0919 24.161L31.786 32.4553H27.939L21.1725 24.7339H21.118V32.4553H18.3623H18.335Z" fill="#5088E9"/>
<path d="M35.4971 32.4553V17.0398H41.4996C42.8092 17.0398 43.9279 17.3672 44.8282 17.9948C45.7559 18.6223 46.2197 19.6045 46.2197 20.9142C46.2197 21.76 45.9742 22.4693 45.5103 23.0423C45.0192 23.6153 44.3917 24.0246 43.5459 24.2701V24.3247C44.5554 24.4611 45.3466 24.8431 45.9741 25.4706C46.5744 26.0982 46.9018 26.9439 46.9018 27.9534C46.9018 28.7446 46.7381 29.4541 46.4107 30.0543C46.0833 30.6546 45.6467 31.1183 45.0738 31.4457C44.5008 31.7732 43.9005 32.0188 43.2184 32.1825C42.5636 32.3462 41.827 32.428 41.063 32.428H35.5244L35.4971 32.4553ZM38.2528 19.3044V23.3152H40.681C41.6087 23.3152 42.2908 23.1241 42.7819 22.7695C43.273 22.4148 43.4913 21.8963 43.4913 21.2142C43.4913 20.5321 43.2457 20.0411 42.7546 19.741C42.2635 19.4408 41.4995 19.3044 40.4355 19.3044H38.2255H38.2528ZM38.2528 25.6615V30.1362H40.7083C43.0002 30.1362 44.1461 29.3722 44.1461 27.817C44.1461 27.0258 43.8732 26.4801 43.3276 26.1527C42.7819 25.8253 41.9361 25.6615 40.7902 25.6615H38.2255H38.2528Z" fill="#5088E9"/>
<path d="M49.876 32.4553L56.5879 17.0398H58.9616L65.5916 32.4553H62.4539L61.0079 28.9357H54.3233L52.9318 32.4553H49.876ZM55.2782 26.5892H60.0802L57.7065 20.3139L55.2782 26.5892Z" fill="#5088E9"/>
<path d="M69.3016 32.4553V17.0398H74.322C78.1963 17.0398 80.1334 18.5405 80.1334 21.5144C80.1334 23.1242 79.5878 24.2701 78.4691 25.0068C77.3777 25.7434 75.9317 26.0981 74.131 26.0981H72.03V32.4825H69.2744L69.3016 32.4553ZM72.0574 23.7789H73.9673C76.2318 23.7789 77.3778 23.015 77.3778 21.5144C77.3778 20.6959 77.0776 20.1229 76.4773 19.8228C75.8771 19.5227 75.0586 19.359 74.0491 19.359H72.0574V23.7789Z" fill="#5088E9"/>
<path d="M87.8837 32.4553V19.4408H83.1636V17.0398H95.3595V19.4408H90.6394V32.4553H87.8837Z" fill="#5088E9"/>
<path d="M99.2876 32.4553V17.0398H111.838V32.4553H109.083V19.4408H102.016V32.4553H99.2603H99.2876Z" fill="#5088E9"/>
<path d="M117.704 32.5917C116.967 32.5917 116.367 32.5099 115.876 32.3735L116.149 29.9452C116.449 30.0543 116.776 30.1089 117.076 30.1089C118.168 30.1089 118.959 29.4814 119.45 28.199C119.941 26.9167 120.187 24.6794 120.187 21.4326V17.0398H130.8V32.4553H128.045V19.4408H122.833V21.8145C122.833 25.607 122.451 28.3354 121.66 30.0543C120.869 31.7459 119.559 32.619 117.731 32.619L117.704 32.5917Z" fill="#5088E9"/>
<path d="M134.511 32.4553L141.223 17.0398H143.596L150.226 32.4553H147.089L145.643 28.9357H138.958L137.567 32.4553H134.511ZM139.913 26.5892H144.715L142.341 20.3139L139.913 26.5892Z" fill="#5088E9"/>
<path d="M155.711 32.4553V19.4408H150.991V17.0398H163.187V19.4408H158.467V32.4553H155.711Z" fill="#5088E9"/>
<path d="M163.977 32.4553L170.689 17.0398H173.063L179.693 32.4553H176.555L175.109 28.9357H168.424L167.033 32.4553H163.977ZM169.379 26.5892H174.181L171.808 20.3139L169.379 26.5892Z" fill="#5088E9"/>
<path d="M198 0.64209H0V49.0166H47.1741V46.3428H2.67386V3.28864H195.353V46.3428H150.826V49.0166H198V0.64209Z" fill="#5088E9"/>
</svg>
