<svg width="86" height="112" viewBox="0 0 86 112" fill="none" xmlns="http://www.w3.org/2000/svg">
<g clip-path="url(#clip0_487_4661)">
<path d="M72.1254 16.7108L67.5566 15.5723L45.6603 103.437L50.2291 104.576C51.7442 104.953 53.2818 104.026 53.6623 102.499L74.1828 20.1555C74.5624 18.632 73.6439 17.0892 72.1254 16.7108Z" fill="#999999" stroke="#263238" stroke-linecap="round" stroke-linejoin="round"/>
<path d="M70.8922 16.4035L31.1341 6.49564C29.7457 6.14963 28.3381 7.00094 27.9901 8.39709L7.35378 91.206C7.00585 92.6021 7.84936 94.0144 9.2378 94.3604L48.9959 104.268C50.3843 104.614 51.7919 103.763 52.1398 102.367L72.7762 19.558C73.1241 18.1618 72.2806 16.7495 70.8922 16.4035Z" fill="#263238" stroke="#263238" stroke-linecap="round" stroke-linejoin="round"/>
<path d="M57.8048 17.2481C57.3876 18.322 56.2424 18.9172 55.1329 18.6407L43.6222 15.7722C42.5093 15.4949 41.7816 14.4293 41.9163 13.2886C42.0519 12.1446 41.3208 11.0782 40.2113 10.8017L32.1128 8.78354C30.8927 8.47947 29.6594 9.22821 29.3545 10.4517L9.52454 90.0248C9.21879 91.2517 9.96068 92.4891 11.1775 92.7923L48.0193 101.973C49.2394 102.278 50.4727 101.529 50.7776 100.305L70.6067 20.7356C70.9125 19.5087 70.1706 18.2713 68.9538 17.9681L60.4766 15.8555C59.3637 15.5782 58.2211 16.1777 57.8039 17.2515L57.8048 17.2481Z" fill="url(#paint0_linear_487_4661)" fill-opacity="0.96"/>
<mask id="mask0_487_4661" style="mask-type:luminance" maskUnits="userSpaceOnUse" x="9" y="8" width="62" height="95">
<path d="M57.8048 17.2481C57.3876 18.322 56.2424 18.9172 55.1329 18.6407L43.6222 15.7722C42.5093 15.4949 41.7816 14.4293 41.9163 13.2886C42.0519 12.1446 41.3208 11.0782 40.2113 10.8017L32.1128 8.78354C30.8927 8.47947 29.6594 9.22821 29.3545 10.4517L9.52454 90.0248C9.21879 91.2517 9.96068 92.4891 11.1775 92.7923L48.0193 101.973C49.2394 102.278 50.4727 101.529 50.7776 100.305L70.6067 20.7356C70.9125 19.5087 70.1706 18.2713 68.9538 17.9681L60.4766 15.8555C59.3637 15.5782 58.2211 16.1777 57.8039 17.2515L57.8048 17.2481Z" fill="white"/>
</mask>
<g mask="url(#mask0_487_4661)">
<path opacity="0.4" d="M19.7295 100.863L6.26791 97.5079L62.6577 9.53267L76.1194 12.8874L19.7295 100.863Z" fill="white"/>
<path opacity="0.4" d="M29.1418 103.208L25.5619 102.316L81.955 14.3416L85.535 15.2337L29.1418 103.208Z" fill="white"/>
</g>
<path d="M57.8048 17.2481C57.3876 18.322 56.2424 18.9172 55.1329 18.6407L43.6222 15.7722C42.5093 15.4949 41.7816 14.4293 41.9163 13.2886C42.0519 12.1446 41.3208 11.0782 40.2113 10.8017L32.1128 8.78354C30.8927 8.47947 29.6594 9.22821 29.3545 10.4517L9.52454 90.0248C9.21879 91.2517 9.96068 92.4891 11.1775 92.7923L48.0193 101.973C49.2394 102.278 50.4727 101.529 50.7776 100.305L70.6067 20.7356C70.9125 19.5087 70.1706 18.2713 68.9538 17.9681L60.4766 15.8555C59.3637 15.5782 58.2211 16.1777 57.8039 17.2515L57.8048 17.2481Z" stroke="#263238" stroke-linecap="round" stroke-linejoin="round"/>
<path d="M54.4837 14.5307L49.3954 13.2626C48.8557 13.1281 48.3107 13.4577 48.1755 14.0004C48.0403 14.543 48.3668 15.0898 48.9065 15.2243L53.9948 16.4923C54.5345 16.6268 55.0795 16.2972 55.2147 15.7546C55.3499 15.2119 55.0234 14.6651 54.4837 14.5307Z" fill="#999999" stroke="#263238" stroke-linecap="round" stroke-linejoin="round"/>
<path d="M35.2883 94.2151L25.4938 91.7742C24.934 91.6347 24.3681 91.977 24.2278 92.5399C24.0875 93.1028 24.4266 93.6706 24.9864 93.8101L34.7809 96.2509C35.3407 96.3904 35.9066 96.0482 36.0469 95.4853C36.1872 94.9224 35.8481 94.3546 35.2883 94.2151Z" fill="#999999" stroke="#263238" stroke-linecap="round" stroke-linejoin="round"/>
<path d="M69.7943 39.8793L71.4314 33.31C71.507 33.0067 71.3236 32.6996 71.022 32.6244C70.7203 32.5493 70.4143 32.7343 70.3387 33.0377L68.7016 39.607C68.626 39.9103 68.8094 40.2174 69.111 40.2926C69.4127 40.3677 69.7187 40.1827 69.7943 39.8793Z" fill="#263238"/>
<path d="M68.5777 44.7597L69.1228 42.5722C69.1984 42.2689 69.015 41.9618 68.7134 41.8866C68.4117 41.8115 68.1057 41.9965 68.0301 42.2999L67.4849 44.4874C67.4093 44.7908 67.5927 45.0978 67.8944 45.173C68.1961 45.2482 68.5021 45.0631 68.5777 44.7597Z" fill="#263238"/>
</g>
<path d="M81.1035 50.9742L5.66797 32.1753L1.40425 49.2846L76.8398 68.0835L81.1035 50.9742Z" fill="white" stroke="#263238" stroke-linecap="round" stroke-linejoin="round"/>
<path d="M12.2112 44.7896L11.2278 43.5505L11.054 45.1058C11.0076 45.5294 10.6003 45.8127 10.1933 45.7113C9.78637 45.6099 9.55964 45.1686 9.71744 44.7728L10.2939 43.3177L8.84403 43.9504C8.46039 44.1205 8.01709 43.9093 7.8996 43.5044L7.88999 43.4699C7.77249 43.065 8.03636 42.6452 8.45311 42.5796L9.99691 42.3367L8.7476 41.3978C8.41039 41.1443 8.37438 40.6498 8.66814 40.3474L8.6928 40.3214C8.98656 40.019 9.47715 40.0405 9.73611 40.3707L10.7195 41.6098L10.8933 40.0544C10.9397 39.6308 11.347 39.3475 11.7539 39.449C12.1609 39.5504 12.3876 39.9917 12.2299 40.3875L11.6534 41.8425L13.1033 41.2098C13.4869 41.0398 13.9302 41.251 14.0477 41.6559L14.0573 41.6904C14.1748 42.0953 13.9109 42.5151 13.4942 42.5807L11.9504 42.8235L13.1997 43.7624C13.5369 44.016 13.5729 44.5105 13.2792 44.8129L13.2545 44.8388C12.9607 45.1413 12.4712 45.1155 12.2112 44.7896Z" fill="#263238"/>
<path d="M23.0833 47.4995L22.0999 46.2604L21.9261 47.8158C21.8797 48.2394 21.4724 48.5227 21.0654 48.4213C20.6584 48.3199 20.4317 47.8786 20.5895 47.4827L21.166 46.0277L19.7161 46.6604C19.3325 46.8305 18.8892 46.6192 18.7717 46.2143L18.7621 46.1799C18.6446 45.775 18.9084 45.3552 19.3252 45.2895L20.869 45.0467L19.6197 44.1078C19.2825 43.8543 19.2464 43.3597 19.5402 43.0573L19.5649 43.0314C19.8586 42.729 20.3492 42.7505 20.6082 43.0807L21.5916 44.3198L21.7653 42.7644C21.8118 42.3408 22.219 42.0575 22.626 42.1589C23.033 42.2603 23.2597 42.7016 23.1019 43.0975L22.5255 44.5525L23.9753 43.9198C24.359 43.7497 24.8023 43.961 24.9198 44.3659L24.9294 44.4003C25.0469 44.8052 24.783 45.225 24.3663 45.2907L22.8224 45.5335L24.0718 46.4724C24.409 46.7259 24.445 47.2205 24.1512 47.5229L24.1266 47.5488C23.8328 47.8512 23.3433 47.8254 23.0833 47.4995Z" fill="#263238"/>
<path d="M33.9612 50.21L32.9778 48.9709L32.804 50.5263C32.7576 50.9499 32.3503 51.2331 31.9433 51.1317C31.5364 51.0303 31.3096 50.589 31.4674 50.1932L32.0439 48.7381L30.594 49.3709C30.2104 49.5409 29.7671 49.3297 29.6496 48.9248L29.64 48.8903C29.5225 48.4854 29.7864 48.0656 30.2031 48L31.7469 47.7571L30.4976 46.8182C30.1604 46.5647 30.1244 46.0702 30.4181 45.7678L30.4428 45.7419C30.7366 45.4394 31.2272 45.4609 31.4861 45.7911L32.4695 47.0302L32.6433 45.4748C32.6897 45.0512 33.097 44.768 33.5039 44.8694C33.9109 44.9708 34.1376 45.4121 33.9799 45.8079L33.4034 47.263L34.8533 46.6302C35.2369 46.4602 35.6802 46.6714 35.7977 47.0763L35.8073 47.1108C35.9248 47.5157 35.6609 47.9355 35.2442 48.0011L33.7004 48.244L34.9497 49.1829C35.2869 49.4364 35.3229 49.9309 35.0292 50.2333L35.0045 50.2592C34.7107 50.5617 34.2212 50.5359 33.9612 50.21Z" fill="#263238"/>
<path d="M44.8313 52.9199L43.8479 51.6808L43.6741 53.2362C43.6277 53.6598 43.2204 53.9431 42.8135 53.8417C42.4065 53.7403 42.1798 53.299 42.3376 52.9031L42.914 51.4481L41.4641 52.0808C41.0805 52.2509 40.6372 52.0396 40.5197 51.6347L40.5101 51.6003C40.3926 51.1954 40.6565 50.7756 41.0732 50.7099L42.617 50.4671L41.3677 49.5282C41.0305 49.2747 40.9945 48.7801 41.2883 48.4777L41.3129 48.4518C41.6067 48.1494 42.0973 48.1709 42.3562 48.5011L43.3396 49.7402L43.5134 48.1848C43.5598 47.7612 43.9671 47.4779 44.3741 47.5793C44.781 47.6808 45.0078 48.122 44.85 48.5179L44.2735 49.9729L45.7234 49.3402C46.107 49.1701 46.5503 49.3814 46.6678 49.7863L46.6774 49.8207C46.7949 50.2256 46.5311 50.6454 46.1143 50.7111L44.5705 50.9539L45.8198 51.8928C46.157 52.1463 46.193 52.6409 45.8993 52.9433L45.8746 52.9692C45.5809 53.2716 45.0913 53.2458 44.8313 52.9199Z" fill="#263238"/>
<path d="M55.7043 55.6289L54.7209 54.3898L54.5472 55.9452C54.5008 56.3688 54.0935 56.6521 53.6865 56.5507C53.2795 56.4492 53.0528 56.008 53.2106 55.6121L53.7871 54.1571L52.3372 54.7898C51.9536 54.9599 51.5103 54.7486 51.3928 54.3437L51.3831 54.3093C51.2657 53.9044 51.5295 53.4846 51.9463 53.4189L53.4901 53.1761L52.2408 52.2372C51.9035 51.9837 51.8675 51.4891 52.1613 51.1867L52.186 51.1608C52.4797 50.8584 52.9703 50.8799 53.2293 51.2101L54.2127 52.4492L54.3864 50.8938C54.4328 50.4702 54.8401 50.1869 55.2471 50.2883C55.6541 50.3897 55.8808 50.831 55.723 51.2269L55.1466 52.6819L56.5964 52.0492C56.9801 51.8791 57.4234 52.0904 57.5409 52.4953L57.5505 52.5297C57.668 52.9346 57.4041 53.3544 56.9873 53.4201L55.4435 53.6629L56.6929 54.6018C57.0301 54.8553 57.0661 55.3499 56.7723 55.6523L56.7477 55.6782C56.4539 55.9806 55.9644 55.9548 55.7043 55.6289Z" fill="#263238"/>
<path d="M74.3324 58.3699C74.3324 58.3699 71.4233 60.6041 68.6901 59.923C65.957 59.2419 64.4365 55.9038 64.4365 55.9038C64.4365 55.9038 67.3456 53.6696 70.0788 54.3507C72.8119 55.0318 74.3324 58.3699 74.3324 58.3699Z" fill="white" stroke="#263238" stroke-linecap="round" stroke-linejoin="round"/>
<path d="M71.0861 57.5604C70.8507 58.5049 69.8968 59.0826 68.9587 58.8488C68.0205 58.615 67.4493 57.6572 67.6846 56.7127C67.92 55.7682 68.8739 55.1905 69.812 55.4243C70.7502 55.6581 71.3214 56.6158 71.0861 57.5604Z" fill="#999999" stroke="#263238" stroke-linecap="round" stroke-linejoin="round"/>
<defs>
<linearGradient id="paint0_linear_487_4661" x1="75.9195" y1="14.7888" x2="22.1626" y2="11.01" gradientUnits="userSpaceOnUse">
<stop stop-color="#78B3F8"/>
<stop offset="1" stop-color="#467EE6"/>
</linearGradient>
<clipPath id="clip0_487_4661">
<rect width="63" height="99" fill="white" transform="translate(24.4043) rotate(13.9933)"/>
</clipPath>
</defs>
</svg>
