<svg width="24" height="23" viewBox="0 0 24 23" fill="none" xmlns="http://www.w3.org/2000/svg">
<path d="M20.8271 4.46777C21.3661 5.17407 21.8225 5.94141 22.1869 6.75437L11.8502 14.4766L7.53027 11.7322V8.43047L11.8502 11.1749L20.8271 4.46777Z" fill="white"/>
<path d="M3.12158 11.4996C3.12158 11.3515 3.12514 11.2043 3.13227 11.058L0.514258 10.928C0.505347 11.1176 0.500003 11.3091 0.500003 11.5023C0.498889 13.0122 0.791921 14.5073 1.36229 15.902C1.93267 17.2968 2.76915 18.5637 3.82376 19.63L5.68078 17.7489C4.86898 16.9295 4.22497 15.9556 3.78578 14.8831C3.34658 13.8107 3.12086 12.6608 3.12158 11.4996Z" fill="white"/>
<path d="M11.848 2.65677C11.9941 2.65677 12.1393 2.66219 12.2837 2.66941L12.4147 0.0152631C12.227 0.00623236 12.0381 0.00171751 11.848 0.00171751C10.3575 -0.000124547 8.88143 0.296422 7.5044 0.874329C6.12736 1.45224 4.87653 2.30012 3.82373 3.3693L5.68075 5.25132C6.48931 4.42832 7.45042 3.77541 8.50882 3.33015C9.56722 2.88489 10.702 2.65604 11.848 2.65677Z" fill="white"/>
<path d="M11.8479 20.3434C11.7017 20.3434 11.5565 20.3434 11.4113 20.3316L11.2803 22.9849C11.4686 22.9945 11.6578 22.9994 11.8479 22.9994C13.3377 23.0009 14.8131 22.7042 16.1894 22.1261C17.5657 21.548 18.8157 20.7 19.8677 19.6309L18.0142 17.7498C17.2055 18.5723 16.2445 19.2249 15.1863 19.67C14.1282 20.1151 12.9936 20.3439 11.8479 20.3434Z" fill="url(#paint0_linear_1459_17912)"/>
<path d="M16.7671 4.19933L18.9735 2.55121C16.9569 0.896286 14.4396 -0.0045939 11.8447 1.76168e-05V2.65597C13.6019 2.65376 15.3182 3.19192 16.7671 4.19933Z" fill="white"/>
<path d="M23.1951 11.5C23.1965 10.8091 23.1368 10.1194 23.0168 9.43921L20.5744 11.2634C20.5744 11.342 20.5744 11.4206 20.5744 11.5C20.575 12.7357 20.3194 13.9577 19.8242 15.0869C19.329 16.216 18.6052 17.2271 17.6997 18.0546L19.4614 20.0278C20.6386 18.9508 21.5793 17.6351 22.2224 16.1661C22.8657 14.697 23.197 13.1073 23.1951 11.5Z" fill="white"/>
<path d="M11.8481 20.3438C10.6288 20.3442 9.42293 20.0851 8.30863 19.5832C7.19439 19.0814 6.19654 18.3479 5.37972 17.4304L3.43359 19.2149C4.49618 20.4081 5.79436 21.3616 7.24395 22.0136C8.69354 22.6656 10.2622 23.0016 11.8481 22.9997V20.3438Z" fill="url(#paint1_linear_1459_17912)"/>
<path d="M5.99623 4.94515L4.23544 2.97192C3.05794 4.04873 2.11691 5.36435 1.47339 6.83345C0.829876 8.30254 0.498246 9.89232 0.500007 11.4997H3.12159C3.12104 10.2641 3.37667 9.04206 3.87187 7.91292C4.36708 6.78382 5.09083 5.77271 5.99623 4.94515Z" fill="white"/>
<defs>
<linearGradient id="paint0_linear_1459_17912" x1="11.1074" y1="21.3964" x2="19.4604" y2="19.5344" gradientUnits="userSpaceOnUse">
<stop offset="0.12" stop-color="white"/>
<stop offset="0.28" stop-color="white"/>
<stop offset="0.87" stop-color="white"/>
</linearGradient>
<linearGradient id="paint1_linear_1459_17912" x1="4.09121" y1="18.8916" x2="11.8796" y2="21.7637" gradientUnits="userSpaceOnUse">
<stop offset="0.13" stop-color="white"/>
<stop offset="0.3" stop-color="white"/>
<stop offset="0.53" stop-color="white"/>
<stop offset="0.8" stop-color="white"/>
<stop offset="0.98" stop-color="white"/>
</linearGradient>
</defs>
</svg>
