<svg width="32" height="32" viewBox="0 0 32 32" fill="none" xmlns="http://www.w3.org/2000/svg">
<path d="M15.8839 4C14.2407 4 12.1991 4.98444 11.4382 5.67706L11.7373 6.33582C11.7373 6.33582 9.42053 6.36578 8.22639 7.11084C7.03226 7.85589 6.48776 8.36258 5.89969 9.56598C5.31082 9.59316 3.10285 10.5016 1.82416 11.4149C1.82416 11.4149 0.749363 15.3589 2.78499 17.0608L1.5 18.7709C1.82416 19.8476 3.22365 20.9416 4.61451 21.0721C5.24032 21.8074 4.02645 23.2678 4.02645 23.2678C4.54033 24.8488 7.99967 26.5866 10.0657 26.5866L9.78133 27.5174C9.78133 27.5174 12.0826 29.1417 15.7963 28.99C18.9356 29.0888 21.4889 28.3621 22.1368 27.5174L21.8088 26.5866C24.6761 26.1723 26.8418 25.2662 28.0468 23.3426C28.0468 23.3426 27.1495 21.514 27.4628 21.0552C28.8536 20.9248 30.1542 19.5969 30.5 19.017L29.2384 17.092C30.2445 15.9966 30.8077 13.1062 30.0681 11.4149C28.7894 10.5016 26.6031 9.75895 26.0142 9.73177C25.7806 8.3956 24.2806 7.35097 24.2806 7.35097C22.8602 6.15356 20.2766 6.33582 20.2766 6.33582L20.4866 5.67706C19.828 4.96535 17.7483 4 15.8839 4Z" fill="white"/>
<path d="M12.0522 7.74017C10.4081 7.33427 9.16861 7.88978 8.09622 8.65412C7.02162 9.42004 6.59757 10.4129 6.69186 10.7683C5.81311 10.4196 3.88376 11.5011 2.96537 12.0199C2.96537 12.0199 2.25467 15.3897 4.07147 16.6936C3.97703 17.609 3.31088 18.7078 2.96537 18.9135C3.56426 19.829 4.8333 20.0796 5.37077 19.847C6.26911 21.0527 5.83504 22.6864 5.33596 23.2074C6.73219 24.4294 10.0635 24.9419 11.0393 25.0184C11.0393 25.0184 10.1804 23.0671 9.79686 21.4591C8.73695 17.0152 9.30744 11.4701 9.30744 11.4701C9.30744 11.4701 6.83161 14.2639 8.21168 20.999C8.44471 22.1362 8.77403 23.3383 8.77403 23.3383C8.54438 23.228 7.98403 23.2949 6.95366 22.7896C7.39505 22.3289 7.20523 19.596 5.90484 18.255C5.90484 18.255 5.28611 18.5318 4.83191 18.3485C5.13749 18.1665 5.51907 17.0052 5.51907 16.1165C4.04864 15.2646 4.20463 13.7245 4.27736 12.9146C4.9989 12.4605 6.29294 11.6885 7.92113 12.3625C7.87835 11.9803 7.98974 10.9628 8.43648 10.2503C8.43648 10.2503 8.98031 9.33311 10.2086 9.04538C11.4369 8.75765 12.0522 7.74017 12.0522 7.74017Z" fill="#333333"/>
<path d="M19.9477 7.74019C21.5918 7.33429 22.8313 7.8898 23.9037 8.65415C24.9783 9.42006 25.4024 10.4129 25.3081 10.7683C26.1868 10.4196 28.1162 11.5011 29.0346 12.0199C29.0346 12.0199 29.7453 15.3897 27.9285 16.6936C28.0229 17.6091 28.689 18.7078 29.0346 18.9135C28.4357 19.829 27.1666 20.0796 26.6292 19.847C25.7308 21.0528 26.1649 22.6865 26.664 23.2074C25.2677 24.4295 21.9364 24.9419 20.9606 25.0185C20.9606 25.0185 21.8196 23.0671 22.2031 21.4592C23.263 17.0152 22.6925 11.4701 22.6925 11.4701C22.6925 11.4701 25.1683 14.2639 23.7882 20.999C23.5552 22.1363 23.2259 23.3383 23.2259 23.3383C23.4555 23.228 24.0159 23.2949 25.0463 22.7897C24.6049 22.3289 24.7947 19.596 26.0951 18.255C26.0951 18.255 26.7138 18.5318 27.168 18.3485C26.8624 18.1666 26.4809 17.0052 26.4809 16.1166C27.9513 15.2646 27.7953 13.7245 27.7226 12.9147C27.001 12.4605 25.707 11.6886 24.0788 12.3625C24.1216 11.9803 24.0102 10.9628 23.5634 10.2503C23.5634 10.2503 23.0196 9.33314 21.7913 9.0454C20.563 8.75767 19.9477 7.74019 19.9477 7.74019Z" fill="#333333"/>
<path fill-rule="evenodd" clip-rule="evenodd" d="M16.1341 10.3364C14.9503 10.3322 13.387 10.6377 13.387 10.6377L12.9174 6.10542L16.0776 5.17952L19.0825 6.10542L18.8252 10.6377C18.8252 10.6377 17.2985 10.3404 16.1341 10.3364ZM16.1341 9.04442C15.4778 9.02769 14.6329 9.14246 14.6329 9.14246L14.4398 6.99511L16.0776 6.56457L17.7034 6.99511V9.14246C17.7034 9.14246 16.8042 9.0615 16.1341 9.04442Z" fill="#333333"/>
<path fill-rule="evenodd" clip-rule="evenodd" d="M15.9835 27.5595C18.7191 27.5285 20.4702 26.7385 20.4702 26.7385L19.4008 23.4817C19.4008 23.4817 17.1055 24.1265 15.9999 24.1275C14.8942 24.1265 12.6354 23.4817 12.6354 23.4817L11.5295 26.7385C11.5295 26.7385 13.2479 27.5285 15.9835 27.5595ZM15.9999 26.4727C17.5574 26.4666 18.5198 26.1568 19.042 25.9515L18.7561 24.8352C18.1114 25.0405 16.9929 25.2672 15.9999 25.2752C15.0068 25.2672 13.8815 25.0981 13.2368 24.8928L12.9878 25.9515C13.51 26.1568 14.4423 26.4666 15.9999 26.4727Z" fill="#333333"/>
<path fill-rule="evenodd" clip-rule="evenodd" d="M21.5374 12.0652H10.4625C10.5483 12.1812 10.8974 12.7445 11.0222 13.0696C11.1474 13.3956 11.2396 13.7245 11.2439 13.9272C11.2472 14.0877 11.2674 14.586 11.2937 15.2373L11.294 15.2436C11.3462 16.5352 11.423 18.4338 11.4447 19.5555C11.4542 20.0502 11.5676 20.7062 11.9771 21.2426C12.394 21.7887 13.0981 22.1851 14.2301 22.1851H15.0263C15.1049 22.1851 15.1591 22.2048 15.2019 22.2333C15.2477 22.2638 15.2899 22.3107 15.3323 22.3778C15.3752 22.4457 15.4197 22.5405 15.4612 22.6306C15.499 22.7127 15.5412 22.8045 15.5911 22.8877C15.6081 22.9098 15.6765 22.9985 15.7405 23.0381C15.8088 23.0804 15.8943 23.1052 15.9999 23.1052C16.1077 23.1052 16.1943 23.0794 16.263 23.0384C16.3277 22.9997 16.3925 22.9095 16.4107 22.8877C16.4623 22.8017 16.514 22.7069 16.5517 22.6229C16.5923 22.5324 16.6326 22.4439 16.6743 22.376C16.7154 22.309 16.7564 22.2626 16.8007 22.2327C16.842 22.2047 16.895 22.1851 16.9735 22.1851H17.7697C18.9017 22.1851 19.6059 21.7887 20.0228 21.2426C20.4323 20.7062 20.5457 20.0502 20.5552 19.5555C20.5768 18.4339 20.6536 16.5354 20.7059 15.2438L20.7061 15.2378C20.7325 14.5864 20.7527 14.0878 20.756 13.9272C20.7602 13.7245 20.8524 13.3956 20.9777 13.0696C21.1025 12.7445 21.4516 12.1812 21.5374 12.0652ZM12.5703 13.5854C12.5571 13.5164 12.5428 13.4492 12.528 13.3883H19.5031C19.4835 13.4555 19.4697 13.5231 19.4597 13.5865C19.4349 13.7435 19.4304 13.996 19.4304 13.996C19.3761 15.3172 19.2672 18.0684 19.2672 19.437C19.2672 20.0016 19.0792 20.3667 18.8309 20.5891C18.5795 20.8142 18.2477 20.9098 17.9323 20.9001C17.8903 20.8988 17.8061 20.8974 17.7164 20.896C17.5962 20.894 17.466 20.892 17.4138 20.8896C17.0965 20.8756 16.7882 20.8894 16.5201 20.9608C16.3255 21.0127 16.147 21.0964 16.0024 21.2251C15.6643 20.9015 15.1189 20.7588 14.5606 20.7835C14.5085 20.7859 14.3651 20.7879 14.232 20.7898C14.1294 20.7912 14.0329 20.7926 13.9892 20.794C13.3961 20.8122 12.7958 20.3362 12.7958 19.437C12.7958 17.9421 12.6956 15.4327 12.6442 14.1449C12.6442 14.1449 12.6071 13.7779 12.5703 13.5854Z" fill="#333333"/>
<path d="M12.5124 13.3883C12.5272 13.4492 12.5415 13.5164 12.5547 13.5854C12.5915 13.7779 12.6286 14.1449 12.6286 14.1449C12.68 15.4327 12.7801 17.9421 12.7801 19.4371C12.7801 20.3362 13.3805 20.8122 13.9736 20.794C14.0173 20.7927 14.1138 20.7913 14.2164 20.7898C14.3495 20.7879 14.4929 20.7859 14.545 20.7836C15.1033 20.7589 15.6487 20.9015 15.9868 21.2252C16.1314 21.0964 16.3099 21.0127 16.5044 20.9609C16.7726 20.8895 17.0809 20.8756 17.3982 20.8897C17.4504 20.892 17.5806 20.8941 17.7007 20.896C17.7905 20.8975 17.8747 20.8988 17.9167 20.9001C18.2321 20.9098 18.5639 20.8142 18.8153 20.5891C19.0636 20.3667 19.2516 20.0017 19.2516 19.4371C19.2516 18.0685 19.3605 15.3172 19.4147 13.9961C19.4147 13.9961 19.4192 13.7435 19.4441 13.5865C19.4541 13.5231 19.4679 13.4556 19.4875 13.3883H12.5124Z" fill="#FFDD2D"/>
</svg>
